# xmcd
#
# Track frame offsets:
#	150
#	21931
#	39206
#	61760
#	79887
#	99189
#	112415
#	141642
#	155069
#	167986
#	193176
#	208905
#	222031
#	244558
#	260825
#	292170
#
# Disc length: 4157 seconds
#
# Revision: 1
# Processed by: cddbd v1.5.2PL0 Copyright (c) Steve Scherf et al.
# Submitted via: audiograbber 1.83.01
#
DISCID=fa103b10
DTITLE=Paul Rose - The Best Of Paul Rose
DYEAR=2013
DGENRE=Blues
TTITLE0=Past Myself
TTITLE1=Hurting
TTITLE2=Alll Along The Watchtower
TTITLE3=Modern Wrld
TTITLE4=No Spark, No Fire
TTITLE5=The Learning Curve
TTITLE6=Lies
TTITLE7=Car Snow
TTITLE8=School
TTITLE9=Walker Road
TTITLE10=Too Much Is Not Enough
TTITLE11=The Journey
TTITLE12=Games
TTITLE13=Hold On
TTITLE14=Fairground Team
TTITLE15=Home
EXTD=
EXTT0=
EXTT1=
EXTT2=
EXTT3=
EXTT4=
EXTT5=
EXTT6=
EXTT7=
EXTT8=
EXTT9=
EXTT10=
EXTT11=
EXTT12=
EXTT13=
EXTT14=
EXTT15=
PLAYORDER=
